<?xml version="1.0" encoding="UTF-8"?>
<svg viewBox="0 0 367 366" version="1.1" xmlns="http://www.w3.org/2000/svg" xmlns:xlink="http://www.w3.org/1999/xlink">
    <!-- Generator: Sketch 55.2 (78181) - https://sketchapp.com -->
    <title>empty copy</title>
    <desc>Created with Sketch.</desc>
    <path d="M125.924392,358 C111.564989,358 99.9243922,346.359403 99.9243922,332 C99.9243922,317.640597 111.564989,306 125.924392,306 C140.283796,306 151.924392,317.640597 151.924392,332 C151.924392,346.359403 140.283796,358 125.924392,358 Z M279.924392,358 C265.564989,358 253.924392,346.359403 253.924392,332 C253.924392,317.640597 265.564989,306 279.924392,306 C294.283796,306 305.924392,317.640597 305.924392,332 C305.924392,346.359403 294.283796,358 279.924392,358 Z M325.430201,193.853333 C325.430201,199.113333 321.952115,200.866667 318.474029,200.866667 L108.049838,200.866667 L113.266966,235.933333 L323.691158,235.933333 C334.125415,235.933333 341.081587,242.946667 341.081587,253.466667 C341.081587,263.986667 334.125415,271 323.691158,271 L97.6155803,271 C88.9203658,271 81.9641941,265.74 80.2251512,256.973333 C76.7470654,230.673333 50.6614219,64.1066667 47.1833361,43.0666667 L26.3148213,43.0666667 C15.8805638,43.0666667 8.92439222,36.0533333 8.92439222,25.5333333 C8.92439222,15.0133333 15.8805638,8 26.3148213,8 L64.5737651,8 C71.5299367,8 80.2251512,15.0133333 80.2251512,23.78 L87.1813229,60.6 L351.515844,60.6 C356.732973,60.6 360.211059,65.86 358.472016,71.12 L325.430201,193.853333 Z M150.924392,147.25 L150.924392,111.75 C150.924392,101.1 143.524392,94 132.424392,94 C121.324392,94 113.924392,101.1 113.924392,111.75 L113.924392,147.25 C113.924392,157.9 121.324392,165 132.424392,165 C143.524392,165 150.924392,157.9 150.924392,147.25 Z M224.924392,147.25 L224.924392,111.75 C224.924392,101.1 217.524392,94 206.424392,94 C195.324392,94 187.924392,101.1 187.924392,111.75 L187.924392,147.25 C187.924392,157.9 195.324392,165 206.424392,165 C217.524392,165 224.924392,157.9 224.924392,147.25 Z M290.924392,147.25 L290.924392,111.75 C290.924392,101.1 283.524392,94 272.424392,94 C261.324392,94 253.924392,101.1 253.924392,111.75 L253.924392,147.25 C253.924392,157.9 261.324392,165 272.424392,165 C283.524392,165 290.924392,157.9 290.924392,147.25 Z"></path>
</svg>