<?xml version="1.0" encoding="UTF-8"?>
<svg viewBox="0 0 366 366" version="1.1" xmlns="http://www.w3.org/2000/svg" xmlns:xlink="http://www.w3.org/1999/xlink">
    <!-- Generator: Sketch 55.2 (78181) - https://sketchapp.com -->
    <title>empty copy 2</title>
    <desc>Created with Sketch.</desc>
    <path d="M231.852085,60.6 C236.210908,77.8778031 243.758821,93.8869898 253.833163,107.964898 C253.613394,109.167711 253.5,110.431656 253.5,111.75 L253.5,147.25 C253.5,157.9 260.9,165 272,165 C283.1,165 290.5,157.9 290.5,147.25 L290.5,143.428505 C303.458156,152.061311 317.926396,158.606382 333.42423,162.583229 L325.005808,193.853333 C325.005808,199.113333 321.527723,200.866667 318.049637,200.866667 L107.625445,200.866667 L112.842574,235.933333 L323.266765,235.933333 C333.701023,235.933333 340.657194,242.946667 340.657194,253.466667 C340.657194,263.986667 333.701023,271 323.266765,271 L97.191188,271 C88.4959735,271 81.5398019,265.74 79.800759,256.973333 C76.3226732,230.673333 50.2370297,64.1066667 46.7589439,43.0666667 L25.890429,43.0666667 C15.4561716,43.0666667 8.5,36.0533333 8.5,25.5333333 C8.5,15.0133333 15.4561716,8 25.890429,8 L64.1493729,8 C71.1055445,8 79.800759,15.0133333 79.800759,23.78 L86.7569306,60.6 L231.852085,60.6 L231.852085,60.6 Z M125.5,358 C111.140597,358 99.5,346.359403 99.5,332 C99.5,317.640597 111.140597,306 125.5,306 C139.859403,306 151.5,317.640597 151.5,332 C151.5,346.359403 139.859403,358 125.5,358 Z M279.5,358 C265.140597,358 253.5,346.359403 253.5,332 C253.5,317.640597 265.140597,306 279.5,306 C293.859403,306 305.5,317.640597 305.5,332 C305.5,346.359403 293.859403,358 279.5,358 Z M150.5,147.25 L150.5,111.75 C150.5,101.1 143.1,94 132,94 C120.9,94 113.5,101.1 113.5,111.75 L113.5,147.25 C113.5,157.9 120.9,165 132,165 C143.1,165 150.5,157.9 150.5,147.25 Z M224.5,147.25 L224.5,111.75 C224.5,101.1 217.1,94 206,94 C194.9,94 187.5,101.1 187.5,111.75 L187.5,147.25 C187.5,157.9 194.9,165 206,165 C217.1,165 224.5,157.9 224.5,147.25 Z"></path>
</svg>