<?xml version="1.0" encoding="UTF-8"?>
<svg viewBox="0 0 673 673" version="1.1" xmlns="http://www.w3.org/2000/svg" xmlns:xlink="http://www.w3.org/1999/xlink">
    <path d="M301.892973,2.75447537 C188.28911,15.2703751 75.0268937,105.528815 70.3253848,234.593591 C67.4614573,313.384765 90.199945,372.478491 166.491205,389.111553 C199.529709,331.656403 155.849543,319.097674 149.010984,277.475641 C121.015636,107.376012 348.692951,-8.79568706 467.938906,110.064603 C550.513373,192.384379 496.104374,445.475241 363.096945,419.141976 C235.688024,394.025899 425.497384,192.552934 323.818819,153.030931 C241.158589,120.859031 197.264718,251.310931 236.45708,316.159014 C213.462709,427.669201 163.970331,532.667914 184.015011,672.48567 C248.979909,626.117847 270.905756,537.456534 288.856971,444.930891 C321.510244,464.461166 338.991871,484.662897 380.620751,487.812941 C534.143855,499.528896 620.008253,337.199376 598.937227,187.344308 C580.260539,54.5409273 445.585649,-13.078642 301.892973,2.75447537 Z"></path>
</svg>