<?xml version="1.0" encoding="UTF-8"?>
<svg viewBox="0 0 102 102" version="1.1" xmlns="http://www.w3.org/2000/svg" xmlns:xlink="http://www.w3.org/1999/xlink">
  <path d="M51,13.6807306 L51,74.8100271 C51.7089501,74.8277827 52.4142165,75.0338038 53.0376795,75.4280904 L72.7490575,87.8938462 C73.215832,88.1890411 73.8335302,88.0499483 74.128725,87.5831737 C74.2698727,87.359985 74.3170085,87.0900259 74.2598454,86.8322115 L68.9617287,62.9368585 C68.6510592,61.5356895 69.1148698,60.075472 70.1771344,59.1103896 L88.108701,42.8193092 C88.517476,42.4479314 88.5477924,41.8154926 88.1764146,41.4067177 C88.0078264,41.221153 87.7756852,41.1056845 87.525985,41.0831899 L64.1138023,38.9740731 C62.6180315,38.8393247 61.3237793,37.8780812 60.7625218,36.4850711 L51.8247094,14.3019144 C51.6813792,13.9461767 51.3566313,13.7179011 51,13.6807306 Z M34.6307502,32.1262561 L45.1629373,5.99040999 C47.30188,0.669863338 54.7014838,0.669863338 56.8404264,5.99040999 L67.3727754,32.1311153 L94.2458552,34.5520118 C99.8040626,35.0553862 101.9721,42.0375371 97.8914772,45.7401065 L77.3787379,64.3762195 L83.5385032,92.1577468 C84.7487284,97.6275088 78.884329,102.092587 74.0532106,99.0234365 L51.0039916,84.4467917 L27.9509745,99.0258357 C23.1105893,102.079357 17.2581685,97.61972 18.4698629,92.1560185 L24.629255,64.3761778 L4.11376977,45.7369718 C0.0311321626,42.0325741 2.19468572,35.0498172 7.75939692,34.5469968 L34.6307502,32.1262561 Z"></path>
</svg>