<?xml version="1.0" encoding="UTF-8"?>
<svg viewBox="0 0 102 102" version="1.1" xmlns="http://www.w3.org/2000/svg" xmlns:xlink="http://www.w3.org/1999/xlink">
  <path d="M34.6307502,32.1262561 L45.1629373,5.99040999 C47.30188,0.669863338 54.7014838,0.669863338 56.8404264,5.99040999 L67.3727754,32.1311153 L94.2458552,34.5520118 C99.8040626,35.0553862 101.9721,42.0375371 97.8914772,45.7401065 L77.3787379,64.3762195 L83.5385032,92.1577468 C84.7487284,97.6275088 78.884329,102.092587 74.0532106,99.0234365 L51.0039916,84.4467917 L27.9509745,99.0258357 C23.1105893,102.079357 17.2581685,97.61972 18.4698629,92.1560185 L24.629255,64.3761778 L4.11376977,45.7369718 C0.0311321626,42.0325741 2.19468572,35.0498172 7.75939692,34.5469968 L34.6307502,32.1262561 Z M49.9696453,14.3018596 L41.0321504,36.4804459 C40.4708423,37.873344 39.1766444,38.8344878 37.6809583,38.9692286 L14.2686512,41.0783565 C13.7185939,41.1279091 13.3128548,41.6139889 13.3624074,42.1640462 C13.3849015,42.413741 13.5003654,42.6458777 13.6859233,42.8144651 L31.6222935,59.1104324 C32.6845258,60.0755165 33.1483165,61.5357118 32.8376519,62.9368586 L27.5395368,86.8322115 C27.4199867,87.3714019 27.7601723,87.9054165 28.2993626,88.0249666 C28.557177,88.0821296 28.8271361,88.0349939 29.0503248,87.8938462 L48.761701,75.4280904 C50.0674268,74.6023314 51.7319537,74.6023314 53.0376795,75.4280904 L72.7490575,87.8938462 C73.215832,88.1890411 73.8335302,88.0499483 74.128725,87.5831737 C74.2698727,87.359985 74.3170085,87.0900259 74.2598454,86.8322115 L68.9617287,62.9368585 C68.6510592,61.5356895 69.1148698,60.075472 70.1771344,59.1103896 L88.108701,42.8193092 C88.517476,42.4479314 88.5477924,41.8154926 88.1764146,41.4067177 C88.0078264,41.221153 87.7756852,41.1056845 87.525985,41.0831899 L64.1138023,38.9740731 C62.6180315,38.8393247 61.3237793,37.8780812 60.7625218,36.4850711 L51.8247094,14.3019144 C51.6183116,13.7896465 51.035718,13.5416898 50.5234501,13.7480876 C50.2712364,13.8497069 50.0712796,14.0496519 49.9696453,14.3018596 Z"></path>
</svg>