<?xml version="1.0" encoding="UTF-8"?>
<svg viewBox="0 0 25 24" version="1.1" xmlns="http://www.w3.org/2000/svg" xmlns:xlink="http://www.w3.org/1999/xlink">
    <!-- Generator: Sketch 54.1 (76490) - https://sketchapp.com -->
    <title>user</title>
    <desc>Created with Sketch.</desc>
    <path d="M12.5494293,14.6358382 C8.53271038,14.6358382 5.20852918,11.3757225 5.20852918,7.28323699 C5.20852918,3.19075145 8.53271038,0 12.5494293,0 C16.5661483,0 19.8903295,3.26011561 19.8903295,7.35260116 C19.8903295,11.4450867 16.5661483,14.6358382 12.5494293,14.6358382 Z M12.5494293,2.77456647 C10.0562934,2.77456647 7.97868018,4.78612717 7.97868018,7.35260116 C7.97868018,9.91907514 9.98703966,11.9306358 12.5494293,11.9306358 C15.111819,11.9306358 17.1201785,9.91907514 17.1201785,7.35260116 C17.1201785,4.78612717 15.0425652,2.77456647 12.5494293,2.77456647 Z M2.50763195,23.4450867 C4.51599143,20.6705202 8.39420283,19.0057803 12.5494293,19.0057803 C16.7046558,19.0057803 20.5136135,20.6705202 22.5219729,23.3063584 C23.0067494,23.9306358 23.8377947,24 24.4610786,23.583815 C25.0843626,23.0982659 25.1536164,22.265896 24.7380937,21.6416185 C22.2449578,18.2427746 17.6049549,16.2312139 12.6186831,16.2312139 C7.56315753,16.2312139 2.85390083,18.3815029 0.291511152,21.7803468 C-0.193265273,22.4046243 -0.0547577232,23.2369942 0.568526252,23.7225434 C0.845541353,23.9306358 1.12255645,24 1.39957155,24 C1.8150942,24 2.23061685,23.7919075 2.50763195,23.4450867 Z"></path>
</svg>